<mxfile host="app.diagrams.net" agent="Mozilla/5.0 (Windows NT 10.0; Win64; x64) AppleWebKit/537.36 (KHTML, like Gecko) Chrome/131.0.0.0 Safari/537.36" version="24.8.8">
  <diagram name="Сторінка-1" id="gZG1bklOEHvpxMxHKgKL">
    <mxGraphModel grid="1" page="1" gridSize="10" guides="1" tooltips="1" connect="1" arrows="1" fold="1" pageScale="1" pageWidth="827" pageHeight="1169" math="0" shadow="0">
      <root>
        <mxCell id="0" />
        <mxCell id="1" parent="0" />
        <mxCell id="zTOW1ndiLBfGoaxhWbfN-3" value="" style="edgeStyle=orthogonalEdgeStyle;rounded=0;orthogonalLoop=1;jettySize=auto;html=1;" edge="1" parent="1" source="zTOW1ndiLBfGoaxhWbfN-1" target="zTOW1ndiLBfGoaxhWbfN-2">
          <mxGeometry relative="1" as="geometry" />
        </mxCell>
        <mxCell id="zTOW1ndiLBfGoaxhWbfN-1" value="&lt;font style=&quot;font-size: 18px;&quot;&gt;Start&lt;/font&gt;" style="ellipse;whiteSpace=wrap;html=1;" vertex="1" parent="1">
          <mxGeometry x="180" y="50" width="120" height="80" as="geometry" />
        </mxCell>
        <mxCell id="zTOW1ndiLBfGoaxhWbfN-6" value="" style="edgeStyle=orthogonalEdgeStyle;rounded=0;orthogonalLoop=1;jettySize=auto;html=1;" edge="1" parent="1" source="zTOW1ndiLBfGoaxhWbfN-2" target="zTOW1ndiLBfGoaxhWbfN-5">
          <mxGeometry relative="1" as="geometry" />
        </mxCell>
        <mxCell id="zTOW1ndiLBfGoaxhWbfN-2" value="&lt;font style=&quot;font-size: 14px;&quot;&gt;Ініцілізація &lt;br&gt;double змінних&lt;br&gt;&amp;nbsp;hx, ha, a_start, a_end, x_start, x_end, b&lt;/font&gt;" style="rounded=0;whiteSpace=wrap;html=1;" vertex="1" parent="1">
          <mxGeometry x="165" y="170" width="150" height="70" as="geometry" />
        </mxCell>
        <mxCell id="zTOW1ndiLBfGoaxhWbfN-9" value="" style="edgeStyle=orthogonalEdgeStyle;rounded=0;orthogonalLoop=1;jettySize=auto;html=1;" edge="1" parent="1" source="zTOW1ndiLBfGoaxhWbfN-5" target="zTOW1ndiLBfGoaxhWbfN-8">
          <mxGeometry relative="1" as="geometry" />
        </mxCell>
        <mxCell id="zTOW1ndiLBfGoaxhWbfN-5" value="&lt;div style=&quot;font-family: Consolas, &amp;quot;Courier New&amp;quot;, monospace; font-size: 14px; line-height: 19px; white-space: pre;&quot;&gt;&lt;font color=&quot;#030303&quot;&gt;Цикл for &lt;br&gt;для проходження всього &lt;br&gt;інтервалу для x з кроком hx&lt;/font&gt;&lt;/div&gt;" style="shape=hexagon;perimeter=hexagonPerimeter2;whiteSpace=wrap;html=1;fixedSize=1;" vertex="1" parent="1">
          <mxGeometry x="91.25" y="288.21" width="297.5" height="65.12" as="geometry" />
        </mxCell>
        <mxCell id="zTOW1ndiLBfGoaxhWbfN-11" value="" style="edgeStyle=orthogonalEdgeStyle;rounded=0;orthogonalLoop=1;jettySize=auto;html=1;" edge="1" parent="1" source="zTOW1ndiLBfGoaxhWbfN-8" target="zTOW1ndiLBfGoaxhWbfN-10">
          <mxGeometry relative="1" as="geometry" />
        </mxCell>
        <mxCell id="zTOW1ndiLBfGoaxhWbfN-8" value="&lt;div style=&quot;font-family: Consolas, &amp;quot;Courier New&amp;quot;, monospace; font-size: 14px; line-height: 19px; white-space: pre;&quot;&gt;&lt;font color=&quot;#030303&quot;&gt;Цикл for &lt;br&gt;для проходження всього &lt;br&gt;інтервалу для a з кроком ha&lt;/font&gt;&lt;/div&gt;" style="shape=hexagon;perimeter=hexagonPerimeter2;whiteSpace=wrap;html=1;fixedSize=1;" vertex="1" parent="1">
          <mxGeometry x="91.25" y="390" width="297.5" height="65.12" as="geometry" />
        </mxCell>
        <mxCell id="zTOW1ndiLBfGoaxhWbfN-13" value="" style="edgeStyle=orthogonalEdgeStyle;rounded=0;orthogonalLoop=1;jettySize=auto;html=1;" edge="1" parent="1" source="zTOW1ndiLBfGoaxhWbfN-10" target="zTOW1ndiLBfGoaxhWbfN-12">
          <mxGeometry relative="1" as="geometry" />
        </mxCell>
        <mxCell id="zTOW1ndiLBfGoaxhWbfN-10" value="&lt;font style=&quot;font-size: 14px;&quot;&gt;Ініцілізація змінної y для збереження значень після операцій&lt;/font&gt;" style="rounded=0;whiteSpace=wrap;html=1;" vertex="1" parent="1">
          <mxGeometry x="152.5" y="490" width="175" height="60" as="geometry" />
        </mxCell>
        <mxCell id="zTOW1ndiLBfGoaxhWbfN-16" value="" style="edgeStyle=orthogonalEdgeStyle;rounded=0;orthogonalLoop=1;jettySize=auto;html=1;" edge="1" parent="1" source="zTOW1ndiLBfGoaxhWbfN-12" target="zTOW1ndiLBfGoaxhWbfN-15">
          <mxGeometry relative="1" as="geometry" />
        </mxCell>
        <mxCell id="zTOW1ndiLBfGoaxhWbfN-19" value="" style="edgeStyle=orthogonalEdgeStyle;rounded=0;orthogonalLoop=1;jettySize=auto;html=1;" edge="1" parent="1" source="zTOW1ndiLBfGoaxhWbfN-12" target="zTOW1ndiLBfGoaxhWbfN-18">
          <mxGeometry relative="1" as="geometry" />
        </mxCell>
        <mxCell id="zTOW1ndiLBfGoaxhWbfN-12" value="&lt;font style=&quot;font-size: 14px;&quot;&gt;x &amp;lt; b ?&lt;/font&gt;" style="rhombus;whiteSpace=wrap;html=1;" vertex="1" parent="1">
          <mxGeometry x="200" y="590" width="80" height="80" as="geometry" />
        </mxCell>
        <mxCell id="zTOW1ndiLBfGoaxhWbfN-15" value="&lt;font style=&quot;font-size: 14px;&quot;&gt;Обчислення y&amp;nbsp;&lt;/font&gt;" style="rounded=0;whiteSpace=wrap;html=1;" vertex="1" parent="1">
          <mxGeometry x="327.5" y="600" width="120" height="60" as="geometry" />
        </mxCell>
        <mxCell id="zTOW1ndiLBfGoaxhWbfN-17" value="&lt;font style=&quot;font-size: 14px;&quot;&gt;YES&lt;/font&gt;" style="text;strokeColor=none;align=center;fillColor=none;html=1;verticalAlign=middle;whiteSpace=wrap;rounded=0;" vertex="1" parent="1">
          <mxGeometry x="267.5" y="600" width="60" height="30" as="geometry" />
        </mxCell>
        <mxCell id="zTOW1ndiLBfGoaxhWbfN-23" value="" style="edgeStyle=orthogonalEdgeStyle;rounded=0;orthogonalLoop=1;jettySize=auto;html=1;" edge="1" parent="1" source="zTOW1ndiLBfGoaxhWbfN-18" target="zTOW1ndiLBfGoaxhWbfN-22">
          <mxGeometry relative="1" as="geometry" />
        </mxCell>
        <mxCell id="zTOW1ndiLBfGoaxhWbfN-18" value="&lt;font style=&quot;font-size: 14px;&quot;&gt;x &amp;gt;= b ?&lt;/font&gt;" style="rhombus;whiteSpace=wrap;html=1;" vertex="1" parent="1">
          <mxGeometry x="200" y="710" width="80" height="80" as="geometry" />
        </mxCell>
        <mxCell id="zTOW1ndiLBfGoaxhWbfN-20" value="&lt;font style=&quot;font-size: 14px;&quot;&gt;NO&lt;/font&gt;" style="text;strokeColor=none;align=center;fillColor=none;html=1;verticalAlign=middle;whiteSpace=wrap;rounded=0;" vertex="1" parent="1">
          <mxGeometry x="190" y="680" width="60" height="30" as="geometry" />
        </mxCell>
        <mxCell id="zTOW1ndiLBfGoaxhWbfN-22" value="&lt;font style=&quot;font-size: 14px;&quot;&gt;Обчислення y&amp;nbsp;&lt;/font&gt;" style="rounded=0;whiteSpace=wrap;html=1;" vertex="1" parent="1">
          <mxGeometry x="327.5" y="720" width="120" height="60" as="geometry" />
        </mxCell>
        <mxCell id="zTOW1ndiLBfGoaxhWbfN-25" value="&lt;font style=&quot;font-size: 14px;&quot;&gt;Вивід результату при кожному a та x&amp;nbsp;&lt;/font&gt;" style="shape=parallelogram;perimeter=parallelogramPerimeter;whiteSpace=wrap;html=1;fixedSize=1;" vertex="1" parent="1">
          <mxGeometry x="510" y="660" width="180" height="60" as="geometry" />
        </mxCell>
        <mxCell id="zTOW1ndiLBfGoaxhWbfN-26" value="" style="endArrow=none;html=1;rounded=0;exitX=1;exitY=0.5;exitDx=0;exitDy=0;" edge="1" parent="1" source="zTOW1ndiLBfGoaxhWbfN-15">
          <mxGeometry width="50" height="50" relative="1" as="geometry">
            <mxPoint x="410" y="700" as="sourcePoint" />
            <mxPoint x="480" y="630" as="targetPoint" />
          </mxGeometry>
        </mxCell>
        <mxCell id="zTOW1ndiLBfGoaxhWbfN-27" value="" style="endArrow=none;html=1;rounded=0;exitX=1;exitY=0.5;exitDx=0;exitDy=0;" edge="1" parent="1" source="zTOW1ndiLBfGoaxhWbfN-22">
          <mxGeometry width="50" height="50" relative="1" as="geometry">
            <mxPoint x="410" y="700" as="sourcePoint" />
            <mxPoint x="480" y="750" as="targetPoint" />
          </mxGeometry>
        </mxCell>
        <mxCell id="zTOW1ndiLBfGoaxhWbfN-28" value="" style="endArrow=none;html=1;rounded=0;" edge="1" parent="1">
          <mxGeometry width="50" height="50" relative="1" as="geometry">
            <mxPoint x="480" y="750" as="sourcePoint" />
            <mxPoint x="480" y="630" as="targetPoint" />
          </mxGeometry>
        </mxCell>
        <mxCell id="zTOW1ndiLBfGoaxhWbfN-29" value="" style="endArrow=classic;html=1;rounded=0;entryX=0;entryY=0.5;entryDx=0;entryDy=0;" edge="1" parent="1" target="zTOW1ndiLBfGoaxhWbfN-25">
          <mxGeometry width="50" height="50" relative="1" as="geometry">
            <mxPoint x="480" y="690" as="sourcePoint" />
            <mxPoint x="460" y="650" as="targetPoint" />
          </mxGeometry>
        </mxCell>
        <mxCell id="zTOW1ndiLBfGoaxhWbfN-30" value="&lt;font style=&quot;font-size: 14px;&quot;&gt;YES&lt;/font&gt;" style="text;strokeColor=none;align=center;fillColor=none;html=1;verticalAlign=middle;whiteSpace=wrap;rounded=0;" vertex="1" parent="1">
          <mxGeometry x="267.5" y="720" width="60" height="30" as="geometry" />
        </mxCell>
        <mxCell id="zTOW1ndiLBfGoaxhWbfN-31" value="" style="endArrow=none;html=1;rounded=0;exitX=1;exitY=0.5;exitDx=0;exitDy=0;" edge="1" parent="1" source="zTOW1ndiLBfGoaxhWbfN-25">
          <mxGeometry width="50" height="50" relative="1" as="geometry">
            <mxPoint x="510" y="490" as="sourcePoint" />
            <mxPoint x="720" y="690" as="targetPoint" />
          </mxGeometry>
        </mxCell>
        <mxCell id="zTOW1ndiLBfGoaxhWbfN-32" value="" style="endArrow=none;html=1;rounded=0;" edge="1" parent="1">
          <mxGeometry width="50" height="50" relative="1" as="geometry">
            <mxPoint x="720" y="690" as="sourcePoint" />
            <mxPoint x="720" y="420" as="targetPoint" />
          </mxGeometry>
        </mxCell>
        <mxCell id="zTOW1ndiLBfGoaxhWbfN-36" value="&lt;font style=&quot;font-size: 14px;&quot;&gt;YES&lt;/font&gt;" style="text;strokeColor=none;align=center;fillColor=none;html=1;verticalAlign=middle;whiteSpace=wrap;rounded=0;" vertex="1" parent="1">
          <mxGeometry x="190" y="460" width="60" height="30" as="geometry" />
        </mxCell>
        <mxCell id="zTOW1ndiLBfGoaxhWbfN-37" value="&lt;font style=&quot;font-size: 18px;&quot;&gt;End&lt;/font&gt;" style="ellipse;whiteSpace=wrap;html=1;" vertex="1" parent="1">
          <mxGeometry x="180" y="850" width="120" height="80" as="geometry" />
        </mxCell>
        <mxCell id="zTOW1ndiLBfGoaxhWbfN-38" value="" style="endArrow=none;html=1;rounded=0;entryX=0;entryY=0.5;entryDx=0;entryDy=0;" edge="1" parent="1">
          <mxGeometry width="50" height="50" relative="1" as="geometry">
            <mxPoint x="30" y="320.58" as="sourcePoint" />
            <mxPoint x="91.25" y="320.13999999999993" as="targetPoint" />
          </mxGeometry>
        </mxCell>
        <mxCell id="zTOW1ndiLBfGoaxhWbfN-39" value="" style="endArrow=none;html=1;rounded=0;" edge="1" parent="1">
          <mxGeometry width="50" height="50" relative="1" as="geometry">
            <mxPoint x="30" y="890" as="sourcePoint" />
            <mxPoint x="30" y="320" as="targetPoint" />
          </mxGeometry>
        </mxCell>
        <mxCell id="zTOW1ndiLBfGoaxhWbfN-40" value="" style="endArrow=classic;html=1;rounded=0;entryX=0;entryY=0.5;entryDx=0;entryDy=0;" edge="1" parent="1" target="zTOW1ndiLBfGoaxhWbfN-37">
          <mxGeometry width="50" height="50" relative="1" as="geometry">
            <mxPoint x="30" y="890" as="sourcePoint" />
            <mxPoint x="260" y="790" as="targetPoint" />
          </mxGeometry>
        </mxCell>
        <mxCell id="zTOW1ndiLBfGoaxhWbfN-41" value="&lt;font style=&quot;font-size: 14px;&quot;&gt;YES&lt;/font&gt;" style="text;strokeColor=none;align=center;fillColor=none;html=1;verticalAlign=middle;whiteSpace=wrap;rounded=0;" vertex="1" parent="1">
          <mxGeometry x="180" y="360" width="60" height="30" as="geometry" />
        </mxCell>
        <mxCell id="zTOW1ndiLBfGoaxhWbfN-42" value="&lt;font style=&quot;font-size: 14px;&quot;&gt;NO&lt;/font&gt;" style="text;strokeColor=none;align=center;fillColor=none;html=1;verticalAlign=middle;whiteSpace=wrap;rounded=0;" vertex="1" parent="1">
          <mxGeometry x="31.25" y="288.21" width="60" height="30" as="geometry" />
        </mxCell>
        <mxCell id="EJLVc2DtWEVQoy4uGFVg-1" value="" style="endArrow=classic;html=1;rounded=0;entryX=1;entryY=0.5;entryDx=0;entryDy=0;" edge="1" parent="1" target="zTOW1ndiLBfGoaxhWbfN-8">
          <mxGeometry width="50" height="50" relative="1" as="geometry">
            <mxPoint x="720" y="420" as="sourcePoint" />
            <mxPoint x="440" y="380" as="targetPoint" />
          </mxGeometry>
        </mxCell>
        <mxCell id="EJLVc2DtWEVQoy4uGFVg-2" value="" style="endArrow=none;html=1;rounded=0;exitX=0.952;exitY=0.138;exitDx=0;exitDy=0;exitPerimeter=0;" edge="1" parent="1" source="zTOW1ndiLBfGoaxhWbfN-8">
          <mxGeometry width="50" height="50" relative="1" as="geometry">
            <mxPoint x="520" y="640" as="sourcePoint" />
            <mxPoint x="480" y="400" as="targetPoint" />
          </mxGeometry>
        </mxCell>
        <mxCell id="EJLVc2DtWEVQoy4uGFVg-3" value="" style="endArrow=none;html=1;rounded=0;" edge="1" parent="1">
          <mxGeometry width="50" height="50" relative="1" as="geometry">
            <mxPoint x="480" y="400" as="sourcePoint" />
            <mxPoint x="480" y="320" as="targetPoint" />
          </mxGeometry>
        </mxCell>
        <mxCell id="EJLVc2DtWEVQoy4uGFVg-4" value="" style="endArrow=classic;html=1;rounded=0;entryX=1;entryY=0.5;entryDx=0;entryDy=0;" edge="1" parent="1" target="zTOW1ndiLBfGoaxhWbfN-5">
          <mxGeometry width="50" height="50" relative="1" as="geometry">
            <mxPoint x="480" y="320" as="sourcePoint" />
            <mxPoint x="530" y="430" as="targetPoint" />
          </mxGeometry>
        </mxCell>
        <mxCell id="EJLVc2DtWEVQoy4uGFVg-5" value="&lt;font style=&quot;font-size: 14px;&quot;&gt;NO&lt;/font&gt;" style="text;strokeColor=none;align=center;fillColor=none;html=1;verticalAlign=middle;whiteSpace=wrap;rounded=0;" vertex="1" parent="1">
          <mxGeometry x="414" y="370" width="60" height="30" as="geometry" />
        </mxCell>
      </root>
    </mxGraphModel>
  </diagram>
</mxfile>
